<?xml version="1.0" encoding="utf-8"?>
<!-- Generator: Adobe Illustrator 26.1.0, SVG Export Plug-In . SVG Version: 6.00 Build 0)  -->
<svg width="20px" height="20px" version="1.1" id="Camada_1" xmlns="http://www.w3.org/2000/svg" xmlns:xlink="http://www.w3.org/1999/xlink" x="0px" y="0px"
	 viewBox="0 0 128.8 99.4" style="enable-background:new 0 0 128.8 99.4;" xml:space="preserve">
<style type="text/css">
	.st0{fill:#FFFFFF;}
</style>
<g id="a">
</g>
<g id="b">
	<g id="c">
		<g>
			<g transform="matrix(1, 0, 0, 1, -3166, 557)">
				<path id="d" class="st0" d="M3.4,44.9l72.7,14.5c1.4,0.3,1.8,2.1,0.7,3L27.2,99.1c-1.1,0.8-2.7,0-2.7-1.4
					c0.1-6.2,0.4-19.6,0.3-28.2c0-0.5-0.2-0.9-0.5-1.2C14.9,59.6,6.7,52.2,2,47.8C0.7,46.7,1.8,44.6,3.4,44.9L3.4,44.9z"/>
			</g>
			<g transform="matrix(1, 0, 0, 1, -3166, 557)">
				<path id="e" class="st0" d="M128.4,38.7l-24.8,25c-1,1-2.7,0.4-2.9-0.9l-2.6-16.9c-0.1-0.4-0.3-0.8-0.6-1.1
					c-8-6.2-16.8-13.3-22.2-17.9c-1.4-1.1-0.3-3.3,1.5-2.9l50.9,11.9C128.8,36.2,129.3,37.8,128.4,38.7L128.4,38.7z"/>
			</g>
			<g transform="matrix(1, 0, 0, 1, -3166, 557)">
				<path id="f" class="st0" d="M2.1,0.1L55,13.9c1.5,0.4,1.7,2.5,0.2,3.2L18.1,33c-1.1,0.5-2.4-0.4-2.4-1.6
					c0.1-3.6,0.2-10.3,0.2-15.2c0-0.5-0.2-1-0.6-1.3C9.6,10.3,4.4,6.1,0.6,3C-0.8,1.9,0.4-0.4,2.1,0.1z"/>
			</g>
		</g>
	</g>
</g>
<g>
	<g transform="matrix(1, 0, 0, 1, -3166, 557)">
		<path id="Path_7-2_00000064321666966528699020000015076718298002224020_" class="st0" d="M3169.8-512l72.2,14.4
			c1.4,0.3,1.8,2.1,0.7,3l-49.3,36.4c-1.1,0.8-2.7,0-2.7-1.4c0.1-6.2,0.4-19.4,0.3-28c0-0.5-0.2-0.9-0.5-1.2
			c-9.3-8.6-17.4-16-22.2-20.3C3167.1-510.3,3168.2-512.4,3169.8-512z"/>
	</g>
	<g transform="matrix(1, 0, 0, 1, -3166, 557)">
		<path id="Path_6-2_00000050651085593298579900000003721799691924593585_" class="st0" d="M3293.9-518.2l-24.6,24.8
			c-1,1-2.6,0.4-2.8-0.9l-2.6-16.8c-0.1-0.4-0.3-0.8-0.6-1.1c-8-6.2-16.6-13.2-22.1-17.7c-1.4-1.1-0.3-3.3,1.4-2.9l50.6,11.8
			C3294.4-520.7,3294.9-519.1,3293.9-518.2z"/>
	</g>
	<g transform="matrix(1, 0, 0, 1, -3166, 557)">
		<path id="Path_5-2_00000059996330380639604870000015951185994490644619_" class="st0" d="M3168.5-556.6l52.5,13.8
			c1.5,0.4,1.7,2.5,0.2,3.2l-36.9,15.9c-1.1,0.5-2.4-0.4-2.3-1.6c0.1-3.6,0.2-10.3,0.2-15.1c0-0.5-0.2-1-0.6-1.3
			c-5.6-4.6-10.8-8.8-14.6-11.9C3165.6-554.8,3166.8-557.1,3168.5-556.6z"/>
	</g>
</g>
</svg>
